<svg width="25" height="25" viewBox="0 0 25 25" fill="none" xmlns="http://www.w3.org/2000/svg">
<path d="M12.5 0C5.6225 0 0 5.57229 0 12.5C0 19.3775 5.5723 25 12.5 25C19.3775 25 25 19.4277 25 12.5C25 5.62249 19.3775 0 12.5 0ZM12.5 23.7952C6.27511 23.7952 1.20483 18.7249 1.20483 12.5C1.20483 6.2751 6.27511 1.20482 12.5 1.20482C18.7249 1.20482 23.7952 6.2751 23.7952 12.5C23.7952 18.7249 18.7249 23.7952 12.5 23.7952ZM13.1024 5.8735V3.36346H11.8976V5.8735C8.48394 6.1747 5.8233 9.03615 5.8233 12.5C5.8233 16.1647 8.78515 19.1265 12.4498 19.1265C16.1145 19.1265 19.0763 16.1647 19.0763 12.5C19.1265 9.03615 16.4659 6.1747 13.1024 5.8735ZM12.5 17.9719C9.48797 17.9719 7.02811 15.5121 7.02811 12.5C7.02811 9.68876 9.18676 7.37952 11.8976 7.07832V10.1406H13.1024V7.07832C15.8133 7.37952 17.9719 9.68876 17.9719 12.5C17.9217 15.5121 15.5121 17.9719 12.5 17.9719Z" fill="#F2F2ED"/>
</svg>
