<svg width="842" height="196" viewBox="0 0 842 196" fill="none" xmlns="http://www.w3.org/2000/svg">
<path d="M109.664 94.2016C110.164 94.2016 110.414 94.5016 110.414 95.1016C110.414 95.7016 110.164 96.0016 109.664 96.0016C107.664 96.0016 104.564 95.9016 100.364 95.7016C95.9641 95.5016 92.8141 95.4016 90.9141 95.4016C88.4141 95.4016 85.3641 95.5016 81.7641 95.7016C78.3641 95.9016 75.6641 96.0016 73.6641 96.0016C73.2641 96.0016 73.0641 95.7016 73.0641 95.1016C73.0641 94.5016 73.2641 94.2016 73.6641 94.2016C76.2641 94.2016 78.1141 93.9516 79.2141 93.4516C80.4141 92.8516 81.0141 91.8516 81.0141 90.4516C81.0141 88.7516 80.0141 85.9016 78.0141 81.9016L48.3141 23.2516L25.0641 74.7016C23.7641 77.6016 23.1141 80.3016 23.1141 82.8016C23.1141 86.4016 24.3641 89.2016 26.8641 91.2016C29.4641 93.2016 32.9141 94.2016 37.2141 94.2016C37.7141 94.2016 37.9641 94.5016 37.9641 95.1016C37.9641 95.7016 37.7141 96.0016 37.2141 96.0016C35.4141 96.0016 32.8141 95.9016 29.4141 95.7016C25.6141 95.5016 22.3141 95.4016 19.5141 95.4016C16.8141 95.4016 13.5641 95.5016 9.76406 95.7016C6.36406 95.9016 3.61406 96.0016 1.51406 96.0016C1.11406 96.0016 0.914062 95.7016 0.914062 95.1016C0.914062 94.5016 1.11406 94.2016 1.51406 94.2016C4.31406 94.2016 6.66406 93.6516 8.56406 92.5516C10.4641 91.3516 12.3641 89.3016 14.2641 86.4016C16.1641 83.4016 18.4141 79.0016 21.0141 73.2016L53.5641 1.65157C53.7641 1.35156 54.2141 1.20156 54.9141 1.20156C55.7141 1.20156 56.1641 1.35156 56.2641 1.65157L93.7641 75.4516C97.2641 82.5516 100.164 87.4516 102.464 90.1516C104.764 92.8516 107.164 94.2016 109.664 94.2016Z" fill="white"/>
<path d="M219.437 94.2016C219.737 94.2016 219.887 94.5016 219.887 95.1016C219.887 95.7016 219.737 96.0016 219.437 96.0016C215.937 96.0016 213.137 95.9516 211.037 95.8516L199.487 95.7016L185.987 95.8516C184.187 95.9516 181.737 96.0016 178.637 96.0016C178.337 96.0016 178.187 95.7016 178.187 95.1016C178.187 94.5016 178.337 94.2016 178.637 94.2016C182.337 94.2016 185.037 93.9516 186.737 93.4516C188.437 92.9516 189.587 92.0016 190.187 90.6016C190.787 89.2016 191.087 86.9516 191.087 83.8516V22.5016L131.087 97.6516C130.787 97.9516 130.037 98.1016 128.837 98.1016C126.937 98.1016 125.987 97.7516 125.987 97.0516V14.4016C125.987 11.4016 125.687 9.20157 125.087 7.80157C124.487 6.40156 123.387 5.45156 121.787 4.95156C120.187 4.35156 117.687 4.05156 114.287 4.05156C113.987 4.05156 113.837 3.75156 113.837 3.15157C113.837 2.55157 113.987 2.25157 114.287 2.25157L122.687 2.40157C127.687 2.60156 131.537 2.70156 134.237 2.70156C138.237 2.70156 142.737 2.60156 147.737 2.40157L155.087 2.25157C155.387 2.25157 155.537 2.55157 155.537 3.15157C155.537 3.75156 155.387 4.05156 155.087 4.05156C151.387 4.05156 148.687 4.35156 146.987 4.95156C145.287 5.45156 144.137 6.40156 143.537 7.80157C142.937 9.20157 142.637 11.4016 142.637 14.4016V76.3516L202.637 1.20156C202.937 0.901562 203.687 0.751561 204.887 0.751561C205.587 0.751561 206.237 0.851562 206.837 1.05157C207.437 1.25156 207.737 1.50156 207.737 1.80156V83.8516C207.737 86.8516 208.037 89.1016 208.637 90.6016C209.237 92.0016 210.337 92.9516 211.937 93.4516C213.537 93.9516 216.037 94.2016 219.437 94.2016Z" fill="white"/>
<path d="M278.184 43.3516C286.584 44.3516 293.234 47.1516 298.134 51.7516C303.134 56.3516 305.634 62.0516 305.634 68.8516C305.634 74.0516 304.134 78.7516 301.134 82.9516C298.134 87.1516 293.984 90.5016 288.684 93.0016C283.384 95.4016 277.484 96.6016 270.984 96.6016C268.184 96.6016 264.984 96.4516 261.384 96.1516C259.984 96.0516 258.234 95.9516 256.134 95.8516C254.134 95.7516 251.884 95.7016 249.384 95.7016L238.434 95.8516C236.434 95.9516 233.734 96.0016 230.334 96.0016C230.034 96.0016 229.884 95.7016 229.884 95.1016C229.884 94.5016 230.034 94.2016 230.334 94.2016C233.234 94.2016 235.434 93.9516 236.934 93.4516C238.434 92.8516 239.484 91.8516 240.084 90.4516C240.784 88.9516 241.134 86.7516 241.134 83.8516V14.4016C241.134 10.2016 240.434 7.45156 239.034 6.15156C237.634 4.75156 234.784 4.05156 230.484 4.05156C230.284 4.05156 230.184 3.75156 230.184 3.15157C230.184 2.55157 230.284 2.25157 230.484 2.25157L238.434 2.40157C243.034 2.60156 246.684 2.70156 249.384 2.70156C252.184 2.70156 255.084 2.55156 258.084 2.25157C259.084 2.15156 260.584 2.05156 262.584 1.95156C264.584 1.85156 266.334 1.80156 267.834 1.80156C276.934 1.80156 283.984 3.45156 288.984 6.75156C293.984 10.0516 296.484 14.8516 296.484 21.1516C296.484 25.9516 294.884 30.3016 291.684 34.2016C288.584 38.1016 284.084 41.1516 278.184 43.3516ZM265.584 5.10157C262.684 5.10157 260.684 5.80157 259.584 7.20157C258.484 8.50156 257.934 11.0016 257.934 14.7016V43.2016L263.934 43.3516C269.134 43.3516 273.134 41.4016 275.934 37.5016C278.734 33.6016 280.134 28.6016 280.134 22.5016C280.134 16.8016 278.884 12.5016 276.384 9.60156C273.884 6.60157 270.284 5.10157 265.584 5.10157ZM268.434 92.8516C281.534 92.8516 288.084 86.0516 288.084 72.4516C288.084 64.7516 286.234 58.6516 282.534 54.1516C278.834 49.6516 273.234 47.4016 265.734 47.4016C262.834 47.4016 260.234 47.5016 257.934 47.7016V83.8516C257.934 87.1516 258.584 89.5016 259.884 90.9016C261.184 92.2016 264.034 92.8516 268.434 92.8516Z" fill="white"/>
<path d="M345.793 83.2516C345.793 86.4516 346.143 88.8016 346.843 90.3016C347.543 91.7016 348.843 92.7016 350.743 93.3016C352.743 93.9016 355.893 94.2016 360.193 94.2016C360.493 94.2016 360.643 94.5016 360.643 95.1016C360.643 95.7016 360.493 96.0016 360.193 96.0016C356.093 96.0016 352.893 95.9516 350.593 95.8516L337.543 95.7016L326.593 95.8516C324.593 95.9516 321.893 96.0016 318.493 96.0016C318.193 96.0016 318.043 95.7016 318.043 95.1016C318.043 94.5016 318.193 94.2016 318.493 94.2016C321.693 94.2016 323.993 93.9516 325.393 93.4516C326.893 92.9516 327.893 92.0016 328.393 90.6016C328.893 89.1016 329.143 86.8516 329.143 83.8516V14.4016C329.143 11.4016 328.893 9.20157 328.393 7.80157C327.893 6.40156 326.893 5.45156 325.393 4.95156C323.893 4.35156 321.593 4.05156 318.493 4.05156C318.193 4.05156 318.043 3.75156 318.043 3.15157C318.043 2.55157 318.193 2.25157 318.493 2.25157L326.443 2.40157C331.043 2.60156 334.693 2.70156 337.393 2.70156C339.793 2.70156 342.643 2.55156 345.943 2.25157C347.243 2.15156 348.893 2.05156 350.893 1.95156C352.893 1.85156 355.193 1.80156 357.793 1.80156C367.993 1.80156 376.043 3.95156 381.943 8.25156C387.843 12.4516 390.793 19.0016 390.793 27.9016C390.793 34.1016 389.193 39.3516 385.993 43.6516C382.793 47.9516 378.643 51.2016 373.543 53.4016C368.543 55.6016 363.393 56.7016 358.093 56.7016C355.393 56.7016 353.043 56.4516 351.043 55.9516C350.843 55.9516 350.743 55.7016 350.743 55.2016C350.743 54.9016 350.793 54.6016 350.893 54.3016C351.093 54.0016 351.293 53.9016 351.493 54.0016C352.993 54.4016 354.693 54.6016 356.593 54.6016C361.193 54.6016 364.993 52.4516 367.993 48.1516C371.093 43.8516 372.643 37.7516 372.643 29.8516C372.643 21.9516 370.943 15.8516 367.543 11.5516C364.243 7.25157 359.393 5.10157 352.993 5.10157C350.193 5.10157 348.293 5.75156 347.293 7.05156C346.293 8.35156 345.793 10.9016 345.793 14.7016V83.2516Z" fill="white"/>
<path d="M451.204 97.8016C441.904 97.8016 433.604 95.6516 426.304 91.3516C419.104 86.9516 413.504 81.0516 409.504 73.6516C405.604 66.1516 403.654 58.0016 403.654 49.2016C403.654 38.9016 406.254 30.1016 411.454 22.8016C416.654 15.4016 423.304 9.85156 431.404 6.15156C439.604 2.45156 447.954 0.601562 456.454 0.601562C465.954 0.601562 474.304 2.85156 481.504 7.35156C488.704 11.7516 494.204 17.6016 498.004 24.9016C501.904 32.2016 503.854 39.9516 503.854 48.1516C503.854 57.2516 501.454 65.6016 496.654 73.2016C491.854 80.8016 485.404 86.8016 477.304 91.2016C469.304 95.6016 460.604 97.8016 451.204 97.8016ZM456.154 94.0516C461.754 94.0516 466.754 92.4516 471.154 89.2516C475.654 85.9516 479.154 81.2016 481.654 75.0016C484.154 68.7016 485.404 61.2016 485.404 52.5016C485.404 43.3016 484.004 35.1016 481.204 27.9016C478.404 20.6016 474.354 14.9016 469.054 10.8016C463.754 6.70156 457.554 4.65156 450.454 4.65156C441.354 4.65156 434.354 8.10156 429.454 15.0016C424.554 21.8016 422.104 31.3516 422.104 43.6516C422.104 53.3516 423.554 62.0516 426.454 69.7516C429.454 77.3516 433.504 83.3016 438.604 87.6016C443.804 91.9016 449.654 94.0516 456.154 94.0516Z" fill="white"/>
<path d="M620.947 94.2016C621.247 94.2016 621.397 94.5016 621.397 95.1016C621.397 95.7016 621.247 96.0016 620.947 96.0016C617.447 96.0016 614.647 95.9516 612.547 95.8516L600.997 95.7016L587.497 95.8516C585.697 95.9516 583.247 96.0016 580.147 96.0016C579.847 96.0016 579.697 95.7016 579.697 95.1016C579.697 94.5016 579.847 94.2016 580.147 94.2016C583.847 94.2016 586.547 93.9516 588.247 93.4516C589.947 92.9516 591.097 92.0016 591.697 90.6016C592.297 89.2016 592.597 86.9516 592.597 83.8516V49.3516H544.147V83.8516C544.147 86.8516 544.447 89.1016 545.047 90.6016C545.647 92.0016 546.797 92.9516 548.497 93.4516C550.197 93.9516 552.897 94.2016 556.597 94.2016C556.797 94.2016 556.897 94.5016 556.897 95.1016C556.897 95.7016 556.797 96.0016 556.597 96.0016C553.097 96.0016 550.297 95.9516 548.197 95.8516L535.147 95.7016L523.897 95.8516C521.897 95.9516 519.147 96.0016 515.647 96.0016C515.447 96.0016 515.347 95.7016 515.347 95.1016C515.347 94.5016 515.447 94.2016 515.647 94.2016C519.147 94.2016 521.697 93.9516 523.297 93.4516C524.897 92.9516 525.997 92.0016 526.597 90.6016C527.197 89.1016 527.497 86.8516 527.497 83.8516V14.4016C527.497 11.4016 527.197 9.20157 526.597 7.80157C525.997 6.40156 524.897 5.45156 523.297 4.95156C521.797 4.35156 519.347 4.05156 515.947 4.05156C515.647 4.05156 515.497 3.75156 515.497 3.15157C515.497 2.55157 515.647 2.25157 515.947 2.25157L524.047 2.40157C528.647 2.60156 532.347 2.70156 535.147 2.70156C538.947 2.70156 543.347 2.60156 548.347 2.40157L556.597 2.25157C556.797 2.25157 556.897 2.55157 556.897 3.15157C556.897 3.75156 556.797 4.05156 556.597 4.05156C552.997 4.05156 550.347 4.35156 548.647 4.95156C546.947 5.55156 545.747 6.60157 545.047 8.10156C544.447 9.50156 544.147 11.7016 544.147 14.7016V45.1516H592.597V14.7016C592.597 11.7016 592.297 9.50156 591.697 8.10156C591.097 6.60157 589.947 5.55156 588.247 4.95156C586.547 4.35156 583.847 4.05156 580.147 4.05156C579.847 4.05156 579.697 3.75156 579.697 3.15157C579.697 2.55157 579.847 2.25157 580.147 2.25157L587.497 2.40157C592.497 2.60156 596.997 2.70156 600.997 2.70156C603.697 2.70156 607.547 2.60156 612.547 2.40157L620.947 2.25157C621.247 2.25157 621.397 2.55157 621.397 3.15157C621.397 3.75156 621.247 4.05156 620.947 4.05156C617.547 4.05156 614.997 4.35156 613.297 4.95156C611.697 5.45156 610.597 6.40156 609.997 7.80157C609.497 9.20157 609.247 11.4016 609.247 14.4016V83.8516C609.247 86.8516 609.497 89.1016 609.997 90.6016C610.597 92.0016 611.697 92.9516 613.297 93.4516C614.897 93.9516 617.447 94.2016 620.947 94.2016Z" fill="white"/>
<path d="M729.198 91.9516C730.098 91.9516 730.598 92.0516 730.698 92.2516C730.898 92.3516 730.998 92.8516 730.998 93.7516C730.998 94.1516 730.898 95.5516 730.698 97.9516C729.898 104.652 729.498 112.202 729.498 120.602C729.498 121.102 729.198 121.352 728.598 121.352C728.098 121.352 727.848 121.102 727.848 120.602C727.848 112.602 724.948 106.502 719.148 102.302C713.448 98.1016 705.198 96.0016 694.398 96.0016H661.098C651.598 96.0016 644.298 98.1016 639.198 102.302C634.198 106.502 631.698 112.602 631.698 120.602C631.698 121.102 631.398 121.352 630.798 121.352C630.198 121.352 629.898 121.102 629.898 120.602C629.898 112.202 629.548 105.102 628.848 99.3016C628.548 97.4016 628.398 95.5516 628.398 93.7516C628.398 92.9516 628.448 92.4516 628.548 92.2516C628.748 92.0516 629.198 91.9516 629.898 91.9516H640.098L677.598 1.65157C677.798 1.35156 678.298 1.20156 679.098 1.20156C679.898 1.20156 680.348 1.35156 680.448 1.65157L721.848 91.9516H729.198ZM644.898 91.9516H703.248L672.498 24.9016L644.898 91.9516Z" fill="white"/>
<path d="M841.061 94.2016C841.561 94.2016 841.811 94.5016 841.811 95.1016C841.811 95.7016 841.561 96.0016 841.061 96.0016C839.061 96.0016 835.961 95.9016 831.761 95.7016C827.361 95.5016 824.211 95.4016 822.311 95.4016C819.811 95.4016 816.761 95.5016 813.161 95.7016C809.761 95.9016 807.061 96.0016 805.061 96.0016C804.661 96.0016 804.461 95.7016 804.461 95.1016C804.461 94.5016 804.661 94.2016 805.061 94.2016C807.661 94.2016 809.511 93.9516 810.611 93.4516C811.811 92.8516 812.411 91.8516 812.411 90.4516C812.411 88.7516 811.411 85.9016 809.411 81.9016L793.811 51.1516H767.111L756.461 74.7016C755.161 77.6016 754.511 80.3016 754.511 82.8016C754.511 86.4016 755.761 89.2016 758.261 91.2016C760.861 93.2016 764.311 94.2016 768.611 94.2016C769.111 94.2016 769.361 94.5016 769.361 95.1016C769.361 95.7016 769.111 96.0016 768.611 96.0016C766.811 96.0016 764.211 95.9016 760.811 95.7016C757.011 95.5016 753.711 95.4016 750.911 95.4016C748.211 95.4016 744.961 95.5016 741.161 95.7016C737.761 95.9016 735.011 96.0016 732.911 96.0016C732.511 96.0016 732.311 95.7016 732.311 95.1016C732.311 94.5016 732.511 94.2016 732.911 94.2016C735.711 94.2016 738.061 93.6516 739.961 92.5516C741.861 91.3516 743.761 89.3016 745.661 86.4016C747.561 83.4016 749.811 79.0016 752.411 73.2016L784.961 1.65157C785.161 1.35156 785.611 1.20156 786.311 1.20156C787.111 1.20156 787.561 1.35156 787.661 1.65157L825.161 75.4516C828.661 82.5516 831.561 87.4516 833.861 90.1516C836.161 92.8516 838.561 94.2016 841.061 94.2016ZM769.061 46.9516H791.711L779.711 23.2516L769.061 46.9516Z" fill="white"/>
<path d="M287.841 175.589L303.608 150.276H309.403V183.004H304.375V157.691L288.693 183.004H282.812V150.276H287.841V175.589Z" fill="white"/>
<path d="M331.909 183.685C328.841 183.685 326.199 182.961 323.983 181.512C321.767 180.063 320.062 178.067 318.869 175.525C317.676 172.982 317.079 170.077 317.079 166.81C317.079 163.487 317.69 160.553 318.912 158.011C320.147 155.454 321.866 153.458 324.068 152.023C326.284 150.575 328.869 149.85 331.824 149.85C334.125 149.85 336.199 150.276 338.045 151.129C339.892 151.981 341.404 153.174 342.583 154.708C343.762 156.242 344.494 158.032 344.778 160.077H339.75C339.366 158.586 338.514 157.265 337.193 156.114C335.886 154.95 334.125 154.367 331.909 154.367C329.949 154.367 328.23 154.879 326.752 155.901C325.289 156.91 324.146 158.337 323.322 160.184C322.512 162.016 322.108 164.168 322.108 166.64C322.108 169.168 322.505 171.37 323.301 173.245C324.11 175.12 325.247 176.576 326.71 177.613C328.187 178.65 329.92 179.168 331.909 179.168C333.216 179.168 334.402 178.941 335.467 178.487C336.532 178.032 337.434 177.379 338.173 176.526C338.912 175.674 339.437 174.651 339.75 173.458H344.778C344.494 175.39 343.791 177.13 342.669 178.678C341.561 180.212 340.091 181.434 338.258 182.343C336.44 183.238 334.324 183.685 331.909 183.685Z" fill="white"/>
<path d="M349.551 154.964V150.276H376.142V154.964H365.403V183.004H360.375V154.964H349.551Z" fill="white"/>
<path d="M395.073 183.685C392.118 183.685 389.526 182.982 387.296 181.576C385.08 180.17 383.347 178.202 382.097 175.674C380.861 173.146 380.243 170.191 380.243 166.81C380.243 163.401 380.861 160.425 382.097 157.883C383.347 155.34 385.08 153.366 387.296 151.96C389.526 150.553 392.118 149.85 395.073 149.85C398.027 149.85 400.613 150.553 402.828 151.96C405.059 153.366 406.792 155.34 408.027 157.883C409.277 160.425 409.902 163.401 409.902 166.81C409.902 170.191 409.277 173.146 408.027 175.674C406.792 178.202 405.059 180.17 402.828 181.576C400.613 182.982 398.027 183.685 395.073 183.685ZM395.073 179.168C397.317 179.168 399.164 178.593 400.613 177.442C402.061 176.292 403.134 174.779 403.83 172.904C404.526 171.029 404.874 168.998 404.874 166.81C404.874 164.623 404.526 162.585 403.83 160.695C403.134 158.806 402.061 157.279 400.613 156.114C399.164 154.95 397.317 154.367 395.073 154.367C392.828 154.367 390.982 154.95 389.533 156.114C388.084 157.279 387.012 158.806 386.316 160.695C385.62 162.585 385.272 164.623 385.272 166.81C385.272 168.998 385.62 171.029 386.316 172.904C387.012 174.779 388.084 176.292 389.533 177.442C390.982 178.593 392.828 179.168 395.073 179.168Z" fill="white"/>
<path d="M417.578 195.276V150.276H422.436V155.475H423.033C423.402 154.907 423.913 154.183 424.567 153.302C425.234 152.407 426.186 151.612 427.422 150.915C428.672 150.205 430.362 149.85 432.493 149.85C435.249 149.85 437.678 150.539 439.78 151.917C441.882 153.295 443.523 155.248 444.702 157.776C445.881 160.305 446.47 163.288 446.47 166.725C446.47 170.191 445.881 173.195 444.702 175.738C443.523 178.266 441.889 180.227 439.801 181.619C437.713 182.996 435.305 183.685 432.578 183.685C430.476 183.685 428.793 183.337 427.528 182.641C426.264 181.931 425.291 181.129 424.609 180.234C423.928 179.325 423.402 178.572 423.033 177.975H422.607V195.276H417.578ZM422.521 166.64C422.521 169.112 422.884 171.292 423.608 173.181C424.332 175.056 425.391 176.526 426.783 177.592C428.175 178.643 429.879 179.168 431.896 179.168C433.999 179.168 435.753 178.614 437.159 177.506C438.58 176.384 439.645 174.879 440.355 172.989C441.08 171.086 441.442 168.969 441.442 166.64C441.442 164.339 441.087 162.265 440.376 160.418C439.68 158.558 438.622 157.087 437.202 156.008C435.795 154.914 434.027 154.367 431.896 154.367C429.851 154.367 428.132 154.886 426.74 155.923C425.348 156.945 424.297 158.38 423.587 160.227C422.876 162.059 422.521 164.197 422.521 166.64Z" fill="white"/>
<path d="M459.169 175.589L474.936 150.276H480.732V183.004H475.703V157.691L460.021 183.004H454.141V150.276H459.169V175.589Z" fill="white"/>
<path d="M509.629 183.004V154.879H500.936C498.976 154.879 497.434 155.333 496.312 156.242C495.19 157.151 494.629 158.401 494.629 159.992C494.629 161.555 495.133 162.783 496.142 163.678C497.164 164.573 498.564 165.021 500.339 165.021H510.907V169.708H500.339C498.123 169.708 496.213 169.317 494.608 168.536C493.002 167.755 491.767 166.64 490.9 165.191C490.034 163.728 489.6 161.995 489.6 159.992C489.6 157.975 490.055 156.242 490.964 154.793C491.873 153.344 493.173 152.229 494.863 151.448C496.568 150.667 498.592 150.276 500.936 150.276H514.402V183.004H509.629ZM487.811 183.004L497.1 166.725H502.555L493.265 183.004H487.811Z" fill="white"/>
<path d="M555.763 139.367V183.004H550.479V144.907H550.224L539.57 151.981V146.612L550.479 139.367H555.763Z" fill="white"/>
</svg>
