<svg width="36" height="38" viewBox="0 0 36 38" fill="none" xmlns="http://www.w3.org/2000/svg">
<path d="M26.085 0.666626C27.0055 0.666626 27.7517 1.41282 27.7517 2.33329C27.7517 3.18802 27.1083 3.89247 26.2794 3.98875L26.085 3.99996H11.1917L9.84667 8.99996H33.8333C34.7538 8.99996 35.5 9.74615 35.5 10.6666C35.5 11.5214 34.8566 12.2258 34.0277 12.3221L33.8333 12.3333H31.8417L30.3046 32.6577C30.14 35.1902 28.1096 37.181 25.6061 37.3249L25.3152 37.3333H10.6849C8.14701 37.3333 6.02873 35.4363 5.72262 32.9474L5.69542 32.6577L4.15667 12.3333H2.16667C1.24619 12.3333 0.5 11.5871 0.5 10.6666C0.5 9.8119 1.1434 9.10745 1.9723 9.01117L2.16667 8.99996H6.395L8.30546 1.90049C8.48341 1.23873 9.04501 0.760448 9.71198 0.678956L9.91495 0.666626H26.085ZM28.5017 12.3333H7.49667L9.02173 32.4414C9.07024 33.1876 9.60468 33.7927 10.3044 33.9563L10.4991 33.9897L10.6849 34H25.3152C26.1309 34 26.8166 33.412 26.956 32.6261L26.9783 32.4414L28.5017 12.3333ZM18 15.6666C18.4091 15.6666 18.7493 15.9614 18.8199 16.3502L18.8333 16.5V29.8333C18.8333 30.2935 18.4602 30.6666 18 30.6666C17.5909 30.6666 17.2507 30.3718 17.1801 29.9831L17.1667 29.8333V16.5C17.1667 16.0397 17.5398 15.6666 18 15.6666ZM12.9996 15.6666C13.4087 15.6666 13.749 15.9614 13.8196 16.3502L13.833 16.5V29.8333C13.833 30.2935 13.4599 30.6666 12.9996 30.6666C12.5905 30.6666 12.2503 30.3718 12.1797 29.9831L12.1663 29.8333V16.5C12.1663 16.0397 12.5394 15.6666 12.9996 15.6666ZM23 15.6666C23.4091 15.6666 23.7493 15.9614 23.8199 16.3502L23.8333 16.5V29.8333C23.8333 30.2935 23.4602 30.6666 23 30.6666C22.5909 30.6666 22.2507 30.3718 22.1801 29.9831L22.1667 29.8333V16.5C22.1667 16.0397 22.5398 15.6666 23 15.6666Z" fill="white"/>
</svg>
