<svg width="25" height="25" viewBox="0 0 25 25" fill="none" xmlns="http://www.w3.org/2000/svg">
<path d="M12.5 0C5.62249 0 0 5.5723 0 12.5C0 19.3775 5.57229 25 12.5 25C19.3775 25 25 19.4277 25 12.5C25 5.6225 19.4277 0 12.5 0ZM12.5 23.8454C6.2751 23.8454 1.20482 18.7751 1.20482 12.5502C1.20482 6.3253 6.2751 1.25502 12.5 1.25502C18.7249 1.25502 23.7952 6.3253 23.7952 12.5502C23.7952 18.7751 18.7751 23.7952 12.5 23.8454Z" fill="white"/>
<path d="M12.5073 17.1505L5.01465 9.99157H9.46754V4H15.5397V9.99157H19.9926L12.5073 17.1505ZM7.67902 11.0464L12.5073 15.6596L17.3355 11.0464H14.443V5.05485H10.5716V11.0464H7.67902Z" fill="white"/>
<path d="M20 17.9453H5V19.0002H20V17.9453Z" fill="white"/>
</svg>
