<svg width="50" height="50" viewBox="0 0 50 50" fill="none" xmlns="http://www.w3.org/2000/svg">
<path d="M25 0C11.245 0 0 11.1446 0 25C0 38.755 11.1446 50 25 50C38.755 50 50 38.8554 50 25C50 11.245 38.8554 0 25 0ZM25 47.6908C12.5502 47.6908 2.40963 37.5502 2.40963 25.1004C2.40963 12.6506 12.5502 2.51004 25 2.51004C37.4498 2.51004 47.5903 12.6506 47.5903 25.1004C47.5903 37.5502 37.5502 47.5904 25 47.6908Z" fill="white"/>
<path d="M43.8778 25.2147C43.4931 25.6668 43.118 26.1381 42.7044 26.5709C39.9054 29.4756 36.7987 31.9764 33.163 33.775C30.4891 35.0927 27.6902 35.891 24.6797 35.7275C22.4867 35.6121 20.4091 35.0061 18.4181 34.102C14.6189 32.3707 11.4064 29.8411 8.49205 26.8979C8.05923 26.4651 7.64564 26.013 7.24167 25.5513C6.92427 25.1858 6.91465 24.8107 7.24167 24.4548C10.4061 20.9442 13.9841 17.9817 18.2835 15.9619C23.1792 13.6631 28.0845 13.7401 32.9803 15.8368C37.2797 17.6836 40.723 20.6268 43.5604 24.3106C43.6758 24.4645 43.772 24.628 43.8778 24.7819C43.8778 24.9358 43.8778 25.0704 43.8778 25.2147ZM42.1754 25.0512C42.0311 24.8588 41.9638 24.7626 41.8868 24.6761C41.0693 23.8008 40.2998 22.8774 39.4342 22.0503C36.818 19.5495 33.8555 17.597 30.3641 16.539C28.2577 15.8946 26.1032 15.6252 23.9006 15.8946C21.6691 16.1735 19.6108 16.9622 17.6487 18.0202C14.8498 19.5303 12.3875 21.4828 10.1175 23.695C9.68472 24.1182 9.26152 24.5606 8.83831 24.9839C8.8864 25.0512 8.89602 25.0897 8.92488 25.1185C11.743 28.0713 14.8498 30.6394 18.5432 32.4477C20.5726 33.448 22.6983 34.1212 24.9778 34.2174C27.4113 34.3136 29.7004 33.6884 31.8934 32.6881C35.2406 31.1588 38.0972 28.937 40.7326 26.4074C41.2039 25.9361 41.6945 25.4936 42.1754 25.0512Z" fill="white"/>
<path d="M25.4395 31.1393C22.0442 31.1297 19.3126 28.3981 19.3126 25.0028C19.3126 21.5979 22.0731 18.8471 25.478 18.8663C28.8732 18.8855 31.5952 21.6268 31.5856 25.022C31.576 28.4173 28.8347 31.1489 25.4395 31.1393ZM20.8419 24.9836C20.8323 27.5228 22.9002 29.6003 25.4202 29.61C27.9691 29.6196 30.0563 27.5516 30.0563 25.0028C30.0563 22.4732 27.9883 20.3956 25.4587 20.3956C22.9291 20.3956 20.8516 22.4539 20.8419 24.9836Z" fill="white"/>
</svg>
