<svg width="49" height="49" viewBox="0 0 49 49" fill="none" xmlns="http://www.w3.org/2000/svg">
<path d="M24.5 0C11.0201 0 0 10.9217 0 24.5C0 37.9799 10.9217 49 24.5 49C37.9799 49 49 38.0783 49 24.5C49 11.0201 38.0783 0 24.5 0ZM24.5 46.7369C12.2992 46.7369 2.36144 36.7992 2.36144 24.5984C2.36144 12.3976 12.2992 2.45984 24.5 2.45984C36.7008 2.45984 46.6385 12.3976 46.6385 24.5984C46.6385 36.7992 36.7992 46.6385 24.5 46.7369Z" fill="white"/>
<path d="M24.6872 42.0946C24.5926 42.0946 24.5926 42.0946 24.498 42.0946C23.3629 42.0946 22.1332 42 20.998 41.7162L20.1467 41.527L19.6737 37.4595L16.7413 40.2973L15.9845 39.8243C15.5116 39.5405 14.944 39.1622 14.471 38.8784C13.9035 38.5 13.4305 38.1216 12.9575 37.6487L12.2953 37.0811L13.9035 33.2973L9.93048 34.2432L9.45751 33.4865C8.79534 32.3514 8.32237 31.2162 7.8494 30.0811L7.56561 29.2297L10.8764 26.7703L6.99805 25.6351V24.7838C6.99805 24.6892 6.99805 24.6892 6.99805 24.5946C6.99805 23.3649 7.09264 22.2297 7.37643 21L7.56561 20.1487L11.6332 19.6757L8.79534 16.7432L9.26832 15.9865C9.5521 15.5135 9.93048 14.946 10.2143 14.473C10.5926 14 10.971 13.4324 11.444 12.9595L12.0116 12.2973L15.7953 13.9054L14.8494 9.93244L15.6062 9.45947C16.7413 8.7973 17.8764 8.22974 19.0116 7.85136L19.7683 7.56757L22.2278 10.8784L23.3629 7H24.2143C24.3089 7 24.4035 7 24.498 7C25.6332 7 26.8629 7.0946 27.998 7.37839L28.8494 7.56757L29.3224 11.6351L32.2548 8.89189L33.0116 9.27028C33.5791 9.55406 34.0521 9.93244 34.5251 10.2162C35.0926 10.5946 35.5656 10.973 36.0386 11.4459L36.7007 12.0135L35.0926 15.7973L39.0656 14.8514L39.5386 15.6081C40.2007 16.7432 40.6737 17.8784 41.1467 19.0135L41.4305 19.7703L38.1197 22.2297L41.998 23.3649V24.2162C41.998 24.3108 41.998 24.3108 41.998 24.4054C41.998 25.5406 41.9035 26.7703 41.6197 27.9054L41.4305 28.7568L37.3629 29.2297L40.2007 32.1622L39.7278 32.9189C39.444 33.3919 39.0656 33.9595 38.7818 34.4324C38.4035 34.9054 38.0251 35.473 37.5521 35.946L36.9845 36.6081L33.2008 35L34.1467 38.973L33.3899 39.4459C32.2548 40.1081 31.1197 40.5811 29.9845 40.9595L29.2278 41.2432L26.7683 37.9324L25.6332 41.8108L24.6872 42.0946ZM23.8359 39.7297L24.971 36.0405L25.7278 35.946C26.1062 35.946 26.5791 35.8514 26.9575 35.7568L27.7143 35.5676L30.0791 38.6892C30.5521 38.5 31.0251 38.3108 31.498 38.027L30.5521 34.3378L31.2143 33.8649C31.5926 33.5811 31.8764 33.2973 32.2548 33.0135L32.8224 32.5405L36.417 34.0541C36.6062 33.8649 36.7953 33.5811 36.8899 33.3919C36.9845 33.2027 37.1737 33.0135 37.2683 32.8243L34.6197 29.9865L34.998 29.2297C35.1872 28.8514 35.2818 28.473 35.471 28L35.6602 27.2433L39.5386 26.7703C39.6332 26.2027 39.6332 25.7297 39.7278 25.1622L36.0386 24.027L35.944 23.2703C35.8494 22.7973 35.8494 22.4189 35.7548 21.9459L35.5656 21.1892L38.6872 18.8243C38.498 18.3514 38.3089 17.8784 38.0251 17.4054L34.3359 18.2568L33.8629 17.5946C33.5791 17.2162 33.2953 16.8378 33.0116 16.5541L32.5386 15.9865L34.0521 12.3919C33.8629 12.2027 33.5791 12.0135 33.3899 11.9189C33.2007 11.7297 33.0116 11.6351 32.7278 11.5405L29.9845 14.1892L29.2278 13.9054C28.8494 13.7162 28.471 13.527 27.998 13.4324L27.2413 13.2432L26.7683 9.36486C26.2007 9.27027 25.7278 9.27027 25.1602 9.17568L24.1197 12.8649L23.3629 12.9595C22.8899 13.0541 22.5116 13.0541 22.0386 13.1486L21.2818 13.3378L19.0116 10.2162C18.5386 10.4054 18.0656 10.5946 17.5926 10.8784L18.5386 14.5676L17.8764 15.0405C17.498 15.3243 17.2143 15.6081 16.8359 15.8919L16.2683 16.3649L12.6737 15.1351C12.4845 15.3243 12.2953 15.6081 12.2007 15.7973C12.0116 15.9865 11.917 16.1757 11.8224 16.4595L14.471 19.2027L14.1872 19.9595C13.998 20.3378 13.8089 20.8108 13.7143 21.1892L13.4305 21.9459L9.6467 22.4189C9.5521 22.9865 9.5521 23.4595 9.45751 24.027L13.1467 25.1622L13.2413 25.9189C13.2413 26.3919 13.3359 26.7703 13.4305 27.2433L13.6197 28L10.498 30.3649C10.6872 30.8378 10.8764 31.3108 11.1602 31.7838L14.8494 30.8378L15.3224 31.5C15.6062 31.8784 15.8899 32.1622 16.1737 32.5405L16.6467 33.1081L15.1332 36.7027C15.3224 36.8919 15.6062 37.0811 15.7953 37.1757C15.9845 37.2703 16.1737 37.4595 16.4575 37.5541L19.2007 34.9054L19.9575 35.1892C20.3359 35.3784 20.8089 35.473 21.1872 35.6622L21.944 35.8514L22.417 39.7297C22.7953 39.6351 23.3629 39.7297 23.8359 39.7297ZM36.7007 35.3784L37.1737 34.3378L36.7007 35.3784Z" fill="#F2F2ED"/>
<path d="M18.3486 24.5791C18.3486 21.1737 21.0919 18.4304 24.4973 18.4304C27.9027 18.4304 30.6459 21.1737 30.6459 24.5791C30.6459 27.9845 27.9027 30.7277 24.4973 30.7277C21.0919 30.6331 18.3486 27.8899 18.3486 24.5791ZM20.7135 24.5791C20.7135 26.6601 22.4162 28.3629 24.4973 28.3629C26.5784 28.3629 28.2811 26.6601 28.2811 24.5791C28.2811 22.498 26.5784 20.7953 24.4973 20.7953C22.4162 20.7953 20.7135 22.498 20.7135 24.5791Z" fill="#F2F2ED"/>
</svg>
