<svg width="25" height="25" viewBox="0 0 25 25" fill="none" xmlns="http://www.w3.org/2000/svg">
<path d="M12.5 0C5.62249 0 0 5.5723 0 12.5C0 19.3775 5.57229 25 12.5 25C19.3775 25 25 19.4277 25 12.5C25 5.6225 19.4277 0 12.5 0ZM12.5 23.8454C6.2751 23.8454 1.20482 18.7751 1.20482 12.5502C1.20482 6.3253 6.2751 1.25502 12.5 1.25502C18.7249 1.25502 23.7952 6.3253 23.7952 12.5502C23.7952 18.7751 18.7751 23.7952 12.5 23.8454Z" fill="white"/>
<path d="M18.6916 19C14.562 19 10.4323 19 6.30272 19C6.16564 18.9371 6.06283 18.8341 6 18.6967C6 14.5656 6 10.4344 6 6.30898C6.0971 6.10299 6.24561 6 6.4855 6C10.1582 6.00572 13.8251 6.00572 17.4978 6C17.6692 6 17.8062 6.05722 17.9205 6.1831C18.1946 6.49208 18.4802 6.79533 18.7544 7.10431C18.8401 7.20158 18.9143 7.31602 19 7.41901C19 11.1783 19 14.9318 19 18.691C18.9315 18.8341 18.8344 18.9313 18.6916 19ZM16.8981 18.1703C16.9495 18.1761 16.978 18.1818 17.0123 18.1818C17.3607 18.1818 17.7034 18.1761 18.0518 18.1875C18.1604 18.1875 18.1775 18.1532 18.1775 18.0559C18.1775 14.64 18.1775 11.2183 18.1718 7.80238C18.1718 7.74516 18.1432 7.67077 18.1033 7.625C17.8919 7.38468 17.6749 7.14437 17.4521 6.91549C17.4121 6.86972 17.3322 6.84111 17.2693 6.83539C16.938 6.82967 16.6068 6.82967 16.2812 6.82967C16.2412 6.82967 16.2012 6.83539 16.1555 6.83539C16.1555 6.89833 16.1555 6.94982 16.1555 7.00132C16.1555 8.11136 16.1555 9.21567 16.1555 10.3257C16.1555 10.6747 16.0013 10.8292 15.6529 10.8292C13.551 10.8292 11.449 10.8292 9.3471 10.8292C8.99868 10.8292 8.84446 10.6747 8.84446 10.3257C8.84446 9.21567 8.84446 8.09991 8.84446 6.98988C8.84446 6.9441 8.84446 6.89261 8.84446 6.84111C8.16476 6.84111 7.5022 6.84111 6.83392 6.84111C6.83392 10.6232 6.83392 14.3996 6.83392 18.1761C7.25659 18.1761 7.67355 18.1761 8.10193 18.1761C8.10193 18.1131 8.10193 18.0616 8.10193 18.0044C8.10193 16.3393 8.10193 14.6743 8.10193 13.0035C8.10193 12.9463 8.10193 12.8948 8.10765 12.8376C8.12478 12.643 8.26757 12.5 8.45606 12.4771C8.50747 12.4714 8.55888 12.4714 8.61028 12.4714C11.2091 12.4714 13.8023 12.4714 16.4011 12.4714C16.4583 12.4714 16.5097 12.4714 16.5668 12.4828C16.7381 12.5114 16.8752 12.6488 16.8981 12.8204C16.9038 12.8834 16.9038 12.9463 16.9038 13.0092C16.9038 14.6743 16.9038 16.3336 16.9038 17.9987C16.8981 18.0445 16.8981 18.1017 16.8981 18.1703ZM8.92443 18.1646C11.312 18.1646 13.688 18.1646 16.0641 18.1646C16.0641 16.5339 16.0641 14.9089 16.0641 13.2896C13.6766 13.2896 11.3062 13.2896 8.92443 13.2896C8.92443 14.9203 8.92443 16.5396 8.92443 18.1646ZM12.8656 6.83539C11.7975 6.83539 10.7408 6.83539 9.67267 6.83539C9.67267 7.8882 9.67267 8.9353 9.67267 9.98812C10.7408 9.98812 11.7975 9.98812 12.8656 9.98812C12.8656 8.9353 12.8656 7.89393 12.8656 6.83539ZM15.3216 9.98812C15.3273 9.96523 15.333 9.95379 15.333 9.94806C15.333 8.9353 15.333 7.92826 15.3388 6.91549C15.3388 6.82967 15.2988 6.82394 15.2302 6.82394C14.7504 6.82394 14.2649 6.82394 13.7851 6.82394C13.7566 6.82394 13.728 6.82967 13.7052 6.83539C13.7052 7.8882 13.7052 8.9353 13.7052 9.98812C14.2421 9.98812 14.779 9.98812 15.3216 9.98812Z" fill="white"/>
</svg>
