<svg width="50" height="39" viewBox="0 0 50 39" fill="none" xmlns="http://www.w3.org/2000/svg">
<path d="M6.40002 38.6C2.90002 38.6 0 35.7 0 32.2V11.7C0 8.2 2.80002 5.3 6.40002 5.3H29.8V4.8C29.8 2.2 31.9 0 34.6 0H45.1V1.2V2.40001H34.6C33.3 2.40001 32.2 3.5 32.2 4.8V6.5C32.2 6.8 32.1 7.10001 31.8 7.40001C31.6 7.60001 31.3 7.8 31 7.8H6.40002C4.20002 7.8 2.50002 9.6 2.40002 11.8V32.3C2.40002 34.5 4.20002 36.2 6.40002 36.3H43.5C45.7 36.3 47.5 34.5 47.5 32.3V5C47.5 3.7 46.4 2.60001 45.1 2.60001V1.40001V0.199997C47.7 0.199997 49.9 2.3 49.9 5V32.3C49.9 35.8 47 38.7 43.5 38.7H6.40002V38.6Z" fill="#F2F2ED"/>
</svg>
